<svg width="30" height="30" viewBox="0 0 30 30" fill="none" xmlns="http://www.w3.org/2000/svg">
<path d="M7.625 6C7.1849 6 6.80404 6.16081 6.48242 6.48242C6.16081 6.80404 6 7.1849 6 7.625V22.25C6 22.6901 6.16081 23.071 6.48242 23.3926C6.80404 23.7142 7.1849 23.875 7.625 23.875H22.25C22.6901 23.875 23.071 23.7142 23.3926 23.3926C23.7142 23.071 23.875 22.6901 23.875 22.25V7.625C23.875 7.1849 23.7142 6.80404 23.3926 6.48242C23.071 6.16081 22.6901 6 22.25 6H7.625ZM7.625 7.625H22.25V22.25H18.0352V16.7656H20.1426L20.4473 14.3281H18.0352V12.7539C18.0352 12.3477 18.1029 12.0599 18.2383 11.8906C18.4245 11.6706 18.7546 11.5605 19.2285 11.5605H20.5488V9.35156C20.1426 9.30078 19.5078 9.27539 18.6445 9.27539C17.6797 9.27539 16.9095 9.55469 16.334 10.1133C15.7754 10.6719 15.4961 11.4674 15.4961 12.5V14.3281H13.3633V16.7656H15.4961V22.25H7.625V7.625Z" fill="#004CCA"/>
</svg>
