<svg width="30" height="30" viewBox="0 0 30 30" fill="none" xmlns="http://www.w3.org/2000/svg">
<path d="M9.03321 5.00012C8.44076 5.00012 7.93295 5.21171 7.50977 5.63488C7.08659 6.04113 6.875 6.54895 6.875 7.15832C6.875 7.75077 7.08659 8.25858 7.50977 8.68176C7.93295 9.10494 8.4323 9.31652 9.00781 9.31652C9.60025 9.31652 10.1081 9.10494 10.5313 8.68176C10.9545 8.25858 11.1661 7.75077 11.1661 7.15832C11.1661 6.56587 10.9545 6.05806 10.5313 5.63488C10.125 5.21171 9.62565 5.00012 9.03321 5.00012ZM19.4942 10.6877C18.6647 10.6877 17.9453 10.8823 17.3359 11.2716C16.8451 11.5932 16.4557 12.0249 16.168 12.5665H16.1172V10.9415H12.5625V22.8752H16.2695V16.9591C16.2695 16.3158 16.3034 15.825 16.3711 15.4864C16.4727 14.9786 16.6589 14.5978 16.9297 14.3439C17.2513 14.0561 17.7083 13.9122 18.3008 13.9122C18.8932 13.9122 19.3418 14.0815 19.6465 14.42C19.9004 14.6909 20.0697 15.0971 20.1543 15.6388C20.2051 15.9604 20.2305 16.4343 20.2305 17.0607V22.8752H23.9375V16.3244C23.9375 15.1225 23.8275 14.1577 23.6074 13.4298C23.3536 12.5496 22.9218 11.881 22.3125 11.424C21.6354 10.9331 20.6959 10.6877 19.4942 10.6877ZM7.17969 10.9415V22.8752H10.8867V10.9415H7.17969Z" fill="#004CCA"/>
</svg>
