<svg width="30" height="30" viewBox="0 0 30 30" fill="none" xmlns="http://www.w3.org/2000/svg">
<g clip-path="url(#clip0_0_376)">
<path d="M11.2559 6C10.3079 6 9.42773 6.23698 8.61523 6.71094C7.81966 7.1849 7.1849 7.82812 6.71094 8.64062C6.23698 9.4362 6 10.3079 6 11.2559V18.6191C6 19.5671 6.23698 20.4473 6.71094 21.2598C7.1849 22.0553 7.81966 22.6901 8.61523 23.1641C9.42773 23.638 10.3079 23.875 11.2559 23.875H18.6191C19.5671 23.875 20.4388 23.638 21.2344 23.1641C22.0469 22.6901 22.6901 22.0553 23.1641 21.2598C23.638 20.4473 23.875 19.5671 23.875 18.6191V11.2559C23.875 10.3079 23.638 9.4362 23.1641 8.64062C22.6901 7.82812 22.0469 7.1849 21.2344 6.71094C20.4388 6.23698 19.5671 6 18.6191 6H11.2559ZM11.2559 7.625H18.6191C19.2793 7.625 19.8887 7.78581 20.4473 8.10742C21.0059 8.42904 21.446 8.86914 21.7676 9.42773C22.0892 9.98633 22.25 10.5957 22.25 11.2559V18.6191C22.25 19.2793 22.0892 19.8887 21.7676 20.4473C21.446 21.0059 21.0059 21.446 20.4473 21.7676C19.8887 22.0892 19.2793 22.25 18.6191 22.25H11.2559C10.5957 22.25 9.98633 22.0892 9.42773 21.7676C8.86914 21.446 8.42904 21.0059 8.10742 20.4473C7.78581 19.8887 7.625 19.2793 7.625 18.6191V11.2559C7.625 10.5957 7.78581 9.98633 8.10742 9.42773C8.42904 8.86914 8.86914 8.42904 9.42773 8.10742C9.98633 7.78581 10.5957 7.625 11.2559 7.625ZM19.7363 9.40234C19.5332 9.40234 19.3555 9.47852 19.2031 9.63086C19.0677 9.76628 19 9.93555 19 10.1387C19 10.3418 19.0677 10.5195 19.2031 10.6719C19.3555 10.8073 19.5332 10.875 19.7363 10.875C19.9395 10.875 20.1087 10.8073 20.2441 10.6719C20.3965 10.5195 20.4727 10.3418 20.4727 10.1387C20.4727 9.93555 20.3965 9.76628 20.2441 9.63086C20.1087 9.47852 19.9395 9.40234 19.7363 9.40234ZM14.9375 10.0625C14.0573 10.0625 13.2448 10.2826 12.5 10.7227C11.7552 11.1628 11.1628 11.7552 10.7227 12.5C10.2826 13.2448 10.0625 14.0573 10.0625 14.9375C10.0625 15.8177 10.2826 16.6302 10.7227 17.375C11.1628 18.1198 11.7552 18.7122 12.5 19.1523C13.2448 19.5924 14.0573 19.8125 14.9375 19.8125C15.8177 19.8125 16.6302 19.5924 17.375 19.1523C18.1198 18.7122 18.7122 18.1198 19.1523 17.375C19.5924 16.6302 19.8125 15.8177 19.8125 14.9375C19.8125 14.0573 19.5924 13.2448 19.1523 12.5C18.7122 11.7552 18.1198 11.1628 17.375 10.7227C16.6302 10.2826 15.8177 10.0625 14.9375 10.0625ZM14.9375 11.6875C15.5299 11.6875 16.0716 11.8314 16.5625 12.1191C17.0703 12.4069 17.4681 12.8047 17.7559 13.3125C18.0436 13.8034 18.1875 14.3451 18.1875 14.9375C18.1875 15.5299 18.0436 16.0801 17.7559 16.5879C17.4681 17.0788 17.0703 17.4681 16.5625 17.7559C16.0716 18.0436 15.5299 18.1875 14.9375 18.1875C14.3451 18.1875 13.7949 18.0436 13.2871 17.7559C12.7962 17.4681 12.4069 17.0788 12.1191 16.5879C11.8314 16.0801 11.6875 15.5299 11.6875 14.9375C11.6875 14.3451 11.8314 13.8034 12.1191 13.3125C12.4069 12.8047 12.7962 12.4069 13.2871 12.1191C13.7949 11.8314 14.3451 11.6875 14.9375 11.6875Z" fill="#004CCA"/>
</g>
<defs>
<clipPath id="clip0_0_376">
<rect width="30" height="30" fill="white"/>
</clipPath>
</defs>
</svg>
