<svg width="200" height="200" viewBox="0 0 200 200" fill="none" xmlns="http://www.w3.org/2000/svg">
<path d="M125 24.9997H75V8.33301H125V24.9997ZM108.333 158.333C108.333 166.916 110.5 175 114.25 181.916C109.667 182.833 104.917 183.333 100 183.333C80.1088 183.333 61.0322 175.431 46.967 161.366C32.9018 147.301 25 128.224 25 108.333C25 88.4418 32.9018 69.3652 46.967 55.3C61.0322 41.2348 80.1088 33.333 100 33.333C117.667 33.333 133.917 39.4997 146.833 49.9997L158.667 37.9997C162.917 41.6663 166.667 45.4997 170.417 49.7497L158.583 61.583C169.216 74.8445 175.007 91.3357 175 108.333V111.25C169.667 109.416 164.167 108.333 158.333 108.333C130.75 108.333 108.333 130.75 108.333 158.333ZM108.333 58.333H91.6667V116.666H108.333V58.333ZM177.833 132L147.917 161.916L134.667 148.666L125 158.333L147.917 183.333L187.5 143.75L177.833 132Z" fill="white"/>
</svg>
