<svg width="30" height="30" viewBox="0 0 30 30" fill="none" xmlns="http://www.w3.org/2000/svg">
<path d="M24.75 8.70704C24.0221 9.02866 23.2604 9.24023 22.4648 9.3418C22.8711 9.08789 23.2266 8.77474 23.5312 8.40234C23.8359 8.01302 24.0645 7.58138 24.2168 7.10742C23.4212 7.58138 22.5749 7.91146 21.6777 8.09766C21.3053 7.69141 20.8652 7.37826 20.3574 7.1582C19.8496 6.93815 19.3164 6.82812 18.7578 6.82812C18.0299 6.82812 17.3613 7.00586 16.752 7.36133C16.1426 7.7168 15.6517 8.20768 15.2793 8.83398C14.9238 9.44336 14.7461 10.1035 14.7461 10.8145C14.7461 11.1361 14.7799 11.4408 14.8477 11.7285C13.2227 11.6608 11.6823 11.2461 10.2266 10.4844C8.82161 9.77344 7.61133 8.80013 6.5957 7.56445C6.24023 8.17383 6.0625 8.84245 6.0625 9.57031C6.0625 10.2474 6.22331 10.8822 6.54492 11.4746C6.86654 12.0671 7.29818 12.541 7.83984 12.8965C7.19661 12.8796 6.5957 12.7103 6.03711 12.3887V12.4395C6.03711 13.4043 6.3418 14.2591 6.95117 15.0039C7.56055 15.7318 8.32227 16.1888 9.23633 16.375C8.89779 16.4596 8.55078 16.502 8.19531 16.502C7.94141 16.502 7.6875 16.485 7.43359 16.4512C7.6875 17.2467 8.15299 17.9069 8.83008 18.4316C9.52409 18.9395 10.3027 19.2018 11.166 19.2188C10.472 19.7604 9.70182 20.1836 8.85547 20.4883C8.00911 20.793 7.12891 20.9453 6.21484 20.9453C5.89323 20.9284 5.57161 20.903 5.25 20.8691C6.14714 21.4447 7.11198 21.8848 8.14453 22.1895C9.19401 22.5111 10.2689 22.6719 11.3691 22.6719C13.1465 22.6719 14.7799 22.3249 16.2695 21.6309C17.6237 21.0046 18.8086 20.1159 19.8242 18.9648C20.7721 17.8984 21.5085 16.6797 22.0332 15.3086C22.5241 13.9714 22.7695 12.6341 22.7695 11.2969L22.7441 10.7637C23.5397 10.2051 24.2083 9.51954 24.75 8.70704Z" fill="#004CCA"/>
</svg>
