<svg width="30" height="30" viewBox="0 0 30 30" fill="none" xmlns="http://www.w3.org/2000/svg">
<path d="M25.1071 10.7366C25.1071 10.7366 24.9056 9.26618 24.2853 8.62052C23.4998 7.77076 22.6216 7.7666 22.2188 7.71661C19.3344 7.5 15.004 7.5 15.004 7.5H14.996C14.996 7.5 10.6656 7.5 7.78125 7.71661C7.37842 7.7666 6.50024 7.77076 5.71472 8.62052C5.09436 9.26618 4.89698 10.7366 4.89698 10.7366C4.89698 10.7366 4.6875 12.4653 4.6875 14.1898V15.8061C4.6875 17.5305 4.89294 19.2592 4.89294 19.2592C4.89294 19.2592 5.09436 20.7296 5.7107 21.3753C6.49622 22.225 7.52747 22.1959 7.98669 22.2876C9.63834 22.45 15 22.5 15 22.5C15 22.5 19.3344 22.4917 22.2188 22.2792C22.6216 22.2292 23.4998 22.225 24.2853 21.3753C24.9056 20.7296 25.1071 19.2592 25.1071 19.2592C25.1071 19.2592 25.3125 17.5347 25.3125 15.8061V14.1898C25.3125 12.4653 25.1071 10.7366 25.1071 10.7366ZM12.8691 17.768V11.7738L18.4402 14.7813L12.8691 17.768Z" fill="#004CCA"/>
</svg>
